<svg xmlns="http://www.w3.org/2000/svg" width="200" height="200" class="icon" viewBox="0 0 1024 1024"><path fill="#222" d="M939.563 743.85 692.096 511.318c-18.773-16.64-40.448-25.813-62.933-25.813-22.912 0-43.35 7.936-62.507 25.003l-188.33 168.32-77.057-69.547c-17.493-15.872-36.693-23.765-56.277-23.765-18.773 0-36.267 7.466-53.76 23.296L32.512 752.17c2.475 75.392 33.323 113.749 95.403 113.749H826.24c75.435 0 113.365-42.07 113.365-122.07zM310.4 515.5a98.432 98.432 0 0 0 97.92-98.347c0-53.76-44.16-98.304-97.92-98.304a98.773 98.773 0 0 0-98.304 98.304 98.517 98.517 0 0 0 98.304 98.347zM130.816 895.06h720.853c87.467 0 130.816-42.88 130.816-128.725V257.152C982.485 171.349 939.18 128 851.67 128H130.816C43.776 128 0 171.35 0 257.152v509.184c0 85.845 43.733 128.768 130.816 128.768zm.853-67.072c-41.685 0-64.597-22.058-64.597-65.408V260.907c0-43.307 22.912-65.835 64.597-65.835h719.104c41.259 0 64.598 22.528 64.598 65.835V762.58c0 43.35-23.339 65.408-64.598 65.408H131.67z" opacity=".3"/></svg>